<?xml version="1.0" encoding="UTF-8"?>
<!DOCTYPE svg PUBLIC "-//W3C//DTD SVG 1.1//EN" "http://www.w3.org/Graphics/SVG/1.1/DTD/svg11.dtd">
<!-- Creator: CorelDRAW 2020 (64-Bit) -->
<svg xmlns="http://www.w3.org/2000/svg" xml:space="preserve" width="14mm" height="16mm" version="1.1" style="shape-rendering:geometricPrecision; text-rendering:geometricPrecision; image-rendering:optimizeQuality; fill-rule:evenodd; clip-rule:evenodd"
viewBox="0 0 1400 1600"
 xmlns:xlink="http://www.w3.org/1999/xlink"
 xmlns:xodm="http://www.corel.com/coreldraw/odm/2003">
 <defs>
  <style type="text/css">
   <![CDATA[
    .fil0 {fill:#969797}
   ]]>
  </style>
 </defs>
 <g id="Слой_x0020_1">
  <metadata id="CorelCorpID_0Corel-Layer"/>
  <path class="fil0" d="M851.74 1302.32l-388.01 0 0 -282.18 388.01 0c173.81,0 173.81,282.18 0,282.18zm-70.55 -634.92l-317.46 0 0 -282.18 317.46 0c82.57,0 141.09,58.52 141.09,141.09 0,82.57 -58.52,141.09 -141.09,141.09zm-634.92 917.11c648.28,0 1024.06,108.23 1136.26,-311.33 62.32,-233.04 -87.15,-320.23 -183.88,-464.68 86.74,-129.53 141.09,-106.97 141.09,-317.46 0,-498.88 -651.92,-388.01 -1093.47,-388.01l0 1481.48z"/>
 </g>
</svg>
