<?xml version="1.0" encoding="UTF-8"?>
<!DOCTYPE svg PUBLIC "-//W3C//DTD SVG 1.1//EN" "http://www.w3.org/Graphics/SVG/1.1/DTD/svg11.dtd">
<!-- Creator: CorelDRAW 2020 (64-Bit) -->
<svg xmlns="http://www.w3.org/2000/svg" xml:space="preserve" width="20mm" height="18mm" version="1.1" style="shape-rendering:geometricPrecision; text-rendering:geometricPrecision; image-rendering:optimizeQuality; fill-rule:evenodd; clip-rule:evenodd"
viewBox="0 0 2000 1800"
 xmlns:xlink="http://www.w3.org/1999/xlink"
 xmlns:xodm="http://www.corel.com/coreldraw/odm/2003">
 <defs>
  <style type="text/css">
   <![CDATA[
    .fil0 {fill:#969797}
   ]]>
  </style>
 </defs>
 <g id="Слой_x0020_1">
  <metadata id="CorelCorpID_0Corel-Layer"/>
  <g id="_2512583054544">
   <path class="fil0" d="M12.53 235.32l721.52 740.4c-48.62,181.64 -177.84,461.78 -255.13,607.83l352.74 0c18.5,-79.41 104.79,-277.08 141.09,-352.73l591.61 572.45 156.97 -141.33 -1551.15 -1568.59 -157.65 141.97z"/>
   <path class="fil0" d="M972.75 419.53c-21.61,92.76 -32.07,103.66 -70.55,176.37l240 218.77c264.48,-467.45 -52.15,-395.14 782.93,-395.14l0 -317.46 -1481.48 0c57.53,85.91 120.95,144.12 200.28,223 129.41,128.68 97.7,94.46 328.82,94.46z"/>
  </g>
 </g>
</svg>
