<?xml version="1.0" encoding="UTF-8"?>
<!DOCTYPE svg PUBLIC "-//W3C//DTD SVG 1.1//EN" "http://www.w3.org/Graphics/SVG/1.1/DTD/svg11.dtd">
<!-- Creator: CorelDRAW 2020 (64-Bit) -->
<svg xmlns="http://www.w3.org/2000/svg" xml:space="preserve" width="20mm" height="16mm" version="1.1" style="shape-rendering:geometricPrecision; text-rendering:geometricPrecision; image-rendering:optimizeQuality; fill-rule:evenodd; clip-rule:evenodd"
viewBox="0 0 2000 1600"
 xmlns:xlink="http://www.w3.org/1999/xlink"
 xmlns:xodm="http://www.corel.com/coreldraw/odm/2003">
 <defs>
  <style type="text/css">
   <![CDATA[
    .fil0 {fill:#969797}
   ]]>
  </style>
 </defs>
 <g id="Слой_x0020_1">
  <metadata id="CorelCorpID_0Corel-Layer"/>
  <g id="_2662131600656">
   <polygon class="fil0" points="487.23,288.4 1968.71,288.4 1968.71,76.76 487.23,76.76 "/>
   <polygon class="fil0" points="487.23,923.32 1968.71,923.32 1968.71,711.68 487.23,711.68 "/>
   <polygon class="fil0" points="487.23,1558.24 1968.71,1558.24 1968.71,1346.6 487.23,1346.6 "/>
   <path class="fil0" d="M-6.6 182.58c0,225.25 352.74,225.25 352.74,0 0,-225.25 -352.74,-225.25 -352.74,0z"/>
   <path class="fil0" d="M-6.6 817.5c0,225.25 352.74,225.25 352.74,0 0,-225.25 -352.74,-225.25 -352.74,0z"/>
   <path class="fil0" d="M28.68 1452.42c0,187.99 282.18,187.99 282.18,0 0,-187.99 -282.18,-187.99 -282.18,0z"/>
  </g>
 </g>
</svg>
