<?xml version="1.0" encoding="UTF-8"?>
<!DOCTYPE svg PUBLIC "-//W3C//DTD SVG 1.1//EN" "http://www.w3.org/Graphics/SVG/1.1/DTD/svg11.dtd">
<!-- Creator: CorelDRAW 2020 (64-Bit) -->
<svg xmlns="http://www.w3.org/2000/svg" xml:space="preserve" width="4.5mm" height="4.5mm" version="1.1" style="shape-rendering:geometricPrecision; text-rendering:geometricPrecision; image-rendering:optimizeQuality; fill-rule:evenodd; clip-rule:evenodd"
viewBox="0 0 450 450"
 xmlns:xlink="http://www.w3.org/1999/xlink"
 xmlns:xodm="http://www.corel.com/coreldraw/odm/2003">
 <defs>
  <style type="text/css">
   <![CDATA[
    .str0 {stroke:#969797;stroke-width:52.92;stroke-linecap:round;stroke-linejoin:round;stroke-miterlimit:22.9256}
    .fil0 {fill:none}
   ]]>
  </style>
 </defs>
 <g id="Слой_x0020_1">
  <metadata id="CorelCorpID_0Corel-Layer"/>
  <path class="fil0 str0" d="M198.54 393.75c0,-14.61 11.85,-26.46 26.46,-26.46 14.61,0 26.46,11.85 26.46,26.46 0,14.61 -11.85,26.46 -26.46,26.46 -14.61,0 -26.46,-11.85 -26.46,-26.46z"/>
  <path class="fil0 str0" d="M198.54 235c0,-14.61 11.85,-26.46 26.46,-26.46 14.61,0 26.46,11.85 26.46,26.46 0,14.61 -11.85,26.46 -26.46,26.46 -14.61,0 -26.46,-11.85 -26.46,-26.46z"/>
  <path class="fil0 str0" d="M198.54 76.25c0,-14.61 11.85,-26.46 26.46,-26.46 14.61,0 26.46,11.85 26.46,26.46 0,14.61 -11.85,26.46 -26.46,26.46 -14.61,0 -26.46,-11.85 -26.46,-26.46z"/>
 </g>
</svg>
