<?xml version="1.0" encoding="UTF-8"?>
<!DOCTYPE svg PUBLIC "-//W3C//DTD SVG 1.1//EN" "http://www.w3.org/Graphics/SVG/1.1/DTD/svg11.dtd">
<!-- Creator: CorelDRAW 2020 (64-Bit) -->
<svg xmlns="http://www.w3.org/2000/svg" xml:space="preserve" width="26mm" height="23mm" version="1.1" style="shape-rendering:geometricPrecision; text-rendering:geometricPrecision; image-rendering:optimizeQuality; fill-rule:evenodd; clip-rule:evenodd"
viewBox="0 0 2600 2300"
 xmlns:xlink="http://www.w3.org/1999/xlink"
 xmlns:xodm="http://www.corel.com/coreldraw/odm/2003">
 <defs>
  <style type="text/css">
   <![CDATA[
    .fil0 {fill:#969797}
   ]]>
  </style>
 </defs>
 <g id="Слой_x0020_1">
  <metadata id="CorelCorpID_0Corel-Layer"/>
  <g id="_2661025167440">
   <polygon class="fil0" points="27.17,2289.2 2566.85,2289.2 2566.85,1865.92 27.17,1865.92 "/>
   <path class="fil0" d="M1261.74 419.71l70.54 0c9.3,111.7 164.62,501.65 211.64,599.65l-493.82 0c47.02,-98 202.34,-487.95 211.64,-599.65zm-670.2 1128.75l282.19 0c7.69,-92.46 13.88,-113.27 51.08,-195.83 76.61,-170.04 36.89,-121.63 619.11,-121.63 122.42,0 151.48,210.64 176.37,317.46l282.19 0c-79.2,-149.67 -553.56,-1351.51 -564.38,-1481.48l-282.18 0c-10.87,130.59 -485.07,1331.6 -564.38,1481.48z"/>
  </g>
 </g>
</svg>
